<!DOCTYPE svg PUBLIC "-//W3C//DTD SVG 1.1//EN" "http://www.w3.org/Graphics/SVG/1.1/DTD/svg11.dtd">
<!-- Uploaded to: SVG Repo, www.svgrepo.com, Transformed by: SVG Repo Mixer Tools -->
<svg version="1.1" id="Layer_1" xmlns="http://www.w3.org/2000/svg" xmlns:xlink="http://www.w3.org/1999/xlink" viewBox="0 0 512 512" xml:space="preserve" width="256px" height="256px" fill="#000000">
<g id="SVGRepo_bgCarrier" stroke-width="0"/>
<g id="SVGRepo_tracerCarrier" stroke-linecap="round" stroke-linejoin="round"/>
<g id="SVGRepo_iconCarrier"> <path style="fill:#2C3E50;" d="M407.176,512H104.808c-20.096,0-36.544-16.448-36.544-36.544V36.544 C68.264,16.448,84.696,0,104.808,0h302.384c20.096,0,36.544,16.448,36.544,36.544v438.912C443.72,495.552,427.288,512,407.176,512z"/> <polygon style="fill:#25B6D2;" points="170.152,137.504 134.072,109.968 143.768,97.248 166.616,114.656 199.784,67.232 212.904,76.416 "/> <g> <rect x="255.992" y="90.96" style="fill:#FFFFFF;" width="122" height="16"/> <rect x="255.992" y="195.664" style="fill:#FFFFFF;" width="122" height="16"/> <rect x="255.992" y="300.336" style="fill:#FFFFFF;" width="122" height="16"/> <rect x="255.992" y="405.04" style="fill:#FFFFFF;" width="122" height="16"/> </g> <g> <path style="fill:#25B6D2;" d="M170.296,340.464c-17.696,0-32.112-14.4-32.112-32.128c0-17.696,14.4-32.112,32.112-32.112 s32.112,14.4,32.112,32.112C202.408,326.064,188.008,340.464,170.296,340.464z M170.296,292.24c-8.88,0-16.112,7.232-16.112,16.112 c0,8.896,7.232,16.128,16.112,16.128c8.896,0,16.112-7.232,16.112-16.128C186.408,299.472,179.192,292.24,170.296,292.24z"/> <path style="fill:#25B6D2;" d="M170.296,235.76c-17.696,0-32.112-14.4-32.112-32.112s14.4-32.128,32.112-32.128 s32.112,14.4,32.112,32.128C202.408,221.36,188.008,235.76,170.296,235.76z M170.296,187.536c-8.88,0-16.112,7.232-16.112,16.128 c0,8.88,7.232,16.112,16.112,16.112c8.896,0,16.112-7.232,16.112-16.112C186.408,194.768,179.192,187.536,170.296,187.536z"/> <path style="fill:#25B6D2;" d="M170.296,445.152c-17.696,0-32.112-14.4-32.112-32.112s14.4-32.112,32.112-32.112 s32.112,14.4,32.112,32.112S188.008,445.152,170.296,445.152z M170.296,396.944c-8.88,0-16.112,7.232-16.112,16.112 s7.232,16.112,16.112,16.112c8.896,0,16.112-7.232,16.112-16.112S179.192,396.944,170.296,396.944z"/> </g> </g>
</svg>